<svg width="96" height="44" viewBox="0 0 96 44" fill="none" xmlns="http://www.w3.org/2000/svg">
<g filter="url(#filter0_d_944_311)">
<path d="M4.048 23.936C4.592 23.504 4.84 23.304 4.792 23.336C6.36 22.04 7.592 20.976 8.488 20.144C9.4 19.312 10.168 18.44 10.792 17.528C11.416 16.616 11.728 15.728 11.728 14.864C11.728 14.208 11.576 13.696 11.272 13.328C10.968 12.96 10.512 12.776 9.904 12.776C9.296 12.776 8.816 13.008 8.464 13.472C8.128 13.92 7.96 14.56 7.96 15.392H4C4.032 14.032 4.32 12.896 4.864 11.984C5.424 11.072 6.152 10.4 7.048 9.968C7.96 9.536 8.968 9.32 10.072 9.32C11.976 9.32 13.408 9.808 14.368 10.784C15.344 11.76 15.832 13.032 15.832 14.6C15.832 16.312 15.248 17.904 14.08 19.376C12.912 20.832 11.424 22.256 9.616 23.648H16.096V26.984H4.048V23.936Z" fill="#161414"/>
<path d="M22.4149 16.064C22.8949 15.328 23.4949 14.752 24.2149 14.336C24.9349 13.904 25.7349 13.688 26.6149 13.688V18.032H25.4869C24.4629 18.032 23.6949 18.256 23.1829 18.704C22.6709 19.136 22.4149 19.904 22.4149 21.008V27.224H18.3109V13.832H22.4149V16.064Z" fill="#161414"/>
<path d="M30.6406 12.44C29.9206 12.44 29.3286 12.232 28.8646 11.816C28.4166 11.384 28.1926 10.856 28.1926 10.232C28.1926 9.592 28.4166 9.064 28.8646 8.648C29.3286 8.216 29.9206 8 30.6406 8C31.3446 8 31.9206 8.216 32.3686 8.648C32.8326 9.064 33.0646 9.592 33.0646 10.232C33.0646 10.856 32.8326 11.384 32.3686 11.816C31.9206 12.232 31.3446 12.44 30.6406 12.44ZM32.6806 13.832V27.224H28.5766V13.832H32.6806Z" fill="#161414"/>
<path d="M41.1027 27.416C39.9347 27.416 38.8947 27.216 37.9827 26.816C37.0707 26.416 36.3507 25.872 35.8227 25.184C35.2947 24.48 34.9987 23.696 34.9347 22.832H38.9907C39.0387 23.296 39.2547 23.672 39.6387 23.96C40.0227 24.248 40.4947 24.392 41.0547 24.392C41.5667 24.392 41.9587 24.296 42.2307 24.104C42.5187 23.896 42.6627 23.632 42.6627 23.312C42.6627 22.928 42.4627 22.648 42.0627 22.472C41.6627 22.28 41.0147 22.072 40.1187 21.848C39.1587 21.624 38.3587 21.392 37.7187 21.152C37.0787 20.896 36.5267 20.504 36.0627 19.976C35.5987 19.432 35.3667 18.704 35.3667 17.792C35.3667 17.024 35.5747 16.328 35.9907 15.704C36.4227 15.064 37.0467 14.56 37.8627 14.192C38.6947 13.824 39.6787 13.64 40.8147 13.64C42.4947 13.64 43.8147 14.056 44.7747 14.888C45.7507 15.72 46.3107 16.824 46.4547 18.2H42.6627C42.5987 17.736 42.3907 17.368 42.0387 17.096C41.7027 16.824 41.2547 16.688 40.6947 16.688C40.2147 16.688 39.8467 16.784 39.5907 16.976C39.3347 17.152 39.2067 17.4 39.2067 17.72C39.2067 18.104 39.4067 18.392 39.8067 18.584C40.2227 18.776 40.8627 18.968 41.7267 19.16C42.7187 19.416 43.5267 19.672 44.1507 19.928C44.7747 20.168 45.3187 20.568 45.7827 21.128C46.2627 21.672 46.5107 22.408 46.5267 23.336C46.5267 24.12 46.3027 24.824 45.8547 25.448C45.4227 26.056 44.7907 26.536 43.9587 26.888C43.1427 27.24 42.1907 27.416 41.1027 27.416Z" fill="#161414"/>
<path d="M66.1255 13.688C67.7895 13.688 69.1095 14.192 70.0855 15.2C71.0775 16.208 71.5735 17.608 71.5735 19.4V27.224H67.4935V19.952C67.4935 19.088 67.2615 18.424 66.7975 17.96C66.3495 17.48 65.7255 17.24 64.9255 17.24C64.1255 17.24 63.4935 17.48 63.0295 17.96C62.5815 18.424 62.3575 19.088 62.3575 19.952V27.224H58.2775V19.952C58.2775 19.088 58.0455 18.424 57.5815 17.96C57.1335 17.48 56.5095 17.24 55.7095 17.24C54.9095 17.24 54.2775 17.48 53.8135 17.96C53.3655 18.424 53.1415 19.088 53.1415 19.952V27.224H49.0375V13.832H53.1415V15.512C53.5575 14.952 54.1015 14.512 54.7735 14.192C55.4455 13.856 56.2055 13.688 57.0535 13.688C58.0615 13.688 58.9575 13.904 59.7415 14.336C60.5415 14.768 61.1655 15.384 61.6135 16.184C62.0775 15.448 62.7095 14.848 63.5095 14.384C64.3095 13.92 65.1815 13.688 66.1255 13.688Z" fill="#161414"/>
<g clip-path="url(#clip0_944_311)">
<path d="M76.8708 6.20995C76.5228 6.09395 76.5195 5.90661 76.8775 5.78728L89.6022 1.54595C89.9548 1.42861 90.1568 1.62595 90.0582 1.97128L86.4222 14.6953C86.3222 15.0479 86.1188 15.0599 85.9695 14.7253L83.5735 9.33328L87.5735 3.99995L82.2402 7.99995L76.8708 6.20995Z" fill="#7B61FF"/>
</g>
</g>
<defs>
<filter id="filter0_d_944_311" x="0" y="0" width="95.5735" height="43.416" filterUnits="userSpaceOnUse" color-interpolation-filters="sRGB">
<feFlood flood-opacity="0" result="BackgroundImageFix"/>
<feColorMatrix in="SourceAlpha" type="matrix" values="0 0 0 0 0 0 0 0 0 0 0 0 0 0 0 0 0 0 127 0" result="hardAlpha"/>
<feOffset dy="4"/>
<feGaussianBlur stdDeviation="2"/>
<feComposite in2="hardAlpha" operator="out"/>
<feColorMatrix type="matrix" values="0 0 0 0 0 0 0 0 0 0 0 0 0 0 0 0 0 0 0.25 0"/>
<feBlend mode="normal" in2="BackgroundImageFix" result="effect1_dropShadow_944_311"/>
<feBlend mode="normal" in="SourceGraphic" in2="effect1_dropShadow_944_311" result="shape"/>
</filter>
<clipPath id="clip0_944_311">
<rect width="16" height="16" fill="white" transform="translate(75.5735)"/>
</clipPath>
</defs>
</svg>
